<?xml version="1.0" standalone="no"?>
<!DOCTYPE svg PUBLIC "-//W3C//DTD SVG 20010904//EN"
 "http://www.w3.org/TR/2001/REC-SVG-20010904/DTD/svg10.dtd">
<svg version="1.0" xmlns="http://www.w3.org/2000/svg"
 width="737.000000pt" height="402.000000pt" viewBox="0 0 737.000000 402.000000"
 preserveAspectRatio="xMidYMid meet">
<metadata>
Created by potrace 1.15, written by Peter Selinger 2001-2017
</metadata>
<g transform="translate(0.000000,402.000000) scale(0.100000,-0.100000)"
fill="#000000" stroke="none">
<path d="M1740 3773 c-30 -2 -59 -8 -65 -13 -5 -4 -40 -11 -77 -15 -38 -4 -68
-11 -68 -15 0 -5 -25 -12 -55 -15 -30 -4 -55 -11 -55 -15 0 -5 -18 -11 -40
-15 -22 -4 -40 -10 -40 -15 0 -4 -16 -11 -35 -14 -19 -4 -35 -11 -35 -16 0 -6
-6 -10 -12 -10 -14 0 -140 -61 -148 -72 -3 -4 -17 -12 -30 -17 -33 -15 -62
-33 -107 -69 -11 -9 -31 -24 -43 -32 -97 -65 -317 -283 -344 -341 -5 -11 -16
-17 -23 -15 -8 3 -11 1 -8 -4 6 -9 -17 -52 -42 -78 -7 -7 -13 -20 -13 -28 0
-8 -4 -14 -9 -14 -5 0 -13 -10 -17 -22 -4 -13 -9 -25 -13 -28 -3 -3 -23 -41
-44 -85 -21 -44 -43 -88 -48 -97 -5 -10 -9 -25 -9 -33 0 -8 -4 -15 -9 -15 -5
0 -12 -18 -16 -40 -4 -22 -10 -40 -15 -40 -4 0 -11 -22 -15 -50 -4 -27 -11
-52 -15 -55 -5 -3 -12 -36 -16 -73 -3 -37 -12 -70 -18 -74 -16 -10 -16 -556 0
-566 6 -4 15 -37 18 -74 4 -37 11 -70 16 -73 4 -3 11 -28 15 -55 4 -28 11 -50
15 -50 5 0 11 -18 15 -40 4 -22 11 -40 16 -40 5 0 9 -7 9 -15 0 -8 4 -23 9
-33 5 -9 27 -53 48 -97 21 -44 41 -81 46 -83 4 -2 7 -9 7 -16 0 -7 9 -23 20
-36 11 -13 20 -27 20 -32 0 -5 6 -16 13 -23 33 -38 38 -47 33 -60 -3 -8 0 -12
7 -9 7 2 20 -8 29 -23 39 -65 253 -276 337 -333 21 -13 46 -33 77 -59 6 -5 20
-12 32 -15 12 -4 22 -12 22 -17 0 -5 6 -9 14 -9 8 0 21 -6 28 -12 17 -17 140
-78 156 -78 6 0 12 -4 12 -10 0 -5 16 -12 35 -16 19 -3 35 -10 35 -14 0 -5 18
-11 40 -15 22 -4 42 -10 45 -15 3 -4 28 -11 55 -15 28 -4 50 -10 50 -15 0 -4
30 -11 68 -15 37 -4 73 -12 81 -18 20 -17 542 -17 562 0 8 6 44 14 82 18 37 4
67 11 67 15 0 5 22 11 50 15 27 4 52 11 55 15 3 5 23 11 45 15 22 4 40 10 40
15 0 4 16 11 35 14 19 4 35 11 35 16 0 6 6 10 14 10 12 0 33 10 156 76 19 11
40 25 48 32 7 6 18 12 23 12 5 0 15 5 22 10 29 25 57 46 78 60 86 58 286 255
334 330 12 19 32 46 44 60 11 14 25 30 31 37 5 7 10 16 10 21 0 5 9 19 20 32
11 13 20 29 20 37 0 7 4 13 9 13 5 0 12 12 16 27 3 15 10 30 13 33 4 3 17 28
30 55 13 28 27 58 33 67 5 10 9 25 9 33 0 8 4 15 9 15 5 0 12 18 16 40 4 22
10 40 15 40 4 0 11 25 15 55 3 30 10 55 15 55 5 0 12 30 16 68 3 37 12 70 18
74 16 10 16 556 0 566 -6 4 -15 37 -18 75 -4 37 -11 67 -16 67 -5 0 -12 25
-15 55 -4 30 -11 55 -15 55 -5 0 -11 18 -15 40 -4 22 -11 40 -16 40 -5 0 -9 7
-9 15 0 8 -4 23 -9 33 -5 9 -27 53 -48 97 -21 44 -41 82 -45 83 -5 2 -8 9 -8
16 0 7 -9 23 -20 36 -11 13 -20 27 -20 32 0 5 -6 16 -12 23 -34 38 -39 47 -34
60 3 8 0 12 -7 9 -7 -2 -20 8 -29 23 -39 65 -253 276 -337 333 -21 13 -46 33
-77 59 -6 5 -20 12 -32 15 -12 4 -22 12 -22 17 0 5 -6 9 -14 9 -8 0 -21 6 -28
13 -17 16 -140 77 -155 77 -7 0 -13 4 -13 10 0 5 -16 12 -35 16 -19 3 -35 10
-35 14 0 5 -18 11 -40 15 -22 4 -40 10 -40 15 0 4 -25 11 -55 15 -30 3 -55 10
-55 15 0 4 -30 11 -67 15 -38 4 -74 12 -80 17 -13 11 -403 19 -503 11z m463
-392 c6 -6 25 -11 43 -11 38 0 39 -16 6 -57 -12 -15 -22 -31 -22 -35 0 -4 18
-25 41 -48 l41 -40 114 0 114 0 30 33 c16 17 30 26 30 20 0 -7 6 -13 14 -13 8
0 21 -6 28 -14 8 -7 24 -17 36 -20 35 -11 26 -24 -23 -32 -25 -3 -45 -11 -45
-16 0 -6 -8 -8 -19 -5 -12 3 -18 -1 -17 -12 0 -9 -6 -15 -15 -15 -9 1 -16 -6
-15 -15 0 -9 -6 -15 -15 -15 -9 1 -16 -6 -15 -15 1 -9 -6 -15 -16 -15 -10 1
-15 -3 -12 -8 4 -6 -6 -21 -21 -34 -16 -13 -26 -26 -24 -28 10 -8 105 -56 112
-56 14 0 32 -24 32 -44 0 -16 -9 -19 -70 -20 l-70 -1 0 -90 0 -89 33 -10 c17
-5 32 -13 32 -17 0 -5 18 -12 40 -15 22 -4 40 -10 40 -15 0 -5 26 -9 58 -9 65
1 97 20 108 66 4 16 10 34 14 39 4 6 10 26 14 46 13 72 114 121 214 104 31 -5
43 -14 67 -53 17 -26 32 -51 34 -57 2 -5 10 -16 18 -23 7 -7 13 -20 13 -28 0
-8 4 -14 9 -14 5 0 12 -13 16 -30 4 -16 11 -30 15 -30 5 0 12 -16 16 -35 3
-19 10 -35 14 -35 4 0 10 -11 12 -24 4 -19 1 -22 -14 -18 -10 2 -18 8 -18 13
0 4 -27 11 -60 15 -33 4 -60 11 -60 15 0 5 -47 9 -105 9 -58 0 -105 -4 -105
-9 0 -4 -33 -11 -72 -15 -40 -4 -74 -11 -76 -16 -2 -6 -14 -10 -27 -10 -13 0
-26 -4 -30 -10 -3 -5 -12 -7 -20 -3 -8 3 -15 0 -15 -6 0 -6 -8 -11 -17 -11 -9
0 -41 -14 -70 -30 -30 -17 -59 -28 -65 -24 -6 4 -8 3 -4 -4 3 -6 -7 -25 -24
-42 -16 -17 -30 -37 -30 -45 0 -7 -6 -15 -12 -18 -17 -5 -17 -279 -1 -299 6
-7 14 -28 18 -45 6 -31 35 -68 83 -105 12 -10 22 -16 22 -13 0 7 84 -48 88
-57 2 -5 8 -8 14 -8 5 0 49 -23 96 -52 l87 -51 -2 -345 c-3 -337 -6 -372 -35
-372 -5 0 -14 -5 -21 -10 -48 -41 -62 -50 -74 -50 -7 0 -13 -4 -13 -10 0 -5
-11 -12 -25 -16 -14 -3 -25 -10 -25 -14 0 -5 -13 -11 -30 -15 -16 -4 -30 -10
-30 -15 0 -4 -15 -11 -34 -14 -19 -4 -36 -10 -38 -14 -5 -12 -195 -72 -226
-72 -16 0 -34 -6 -41 -12 -16 -17 -461 -18 -482 -2 -8 6 -40 15 -71 18 -32 4
-60 12 -63 17 -4 5 -15 9 -26 9 -16 0 -19 4 -13 23 3 12 11 24 15 25 5 2 9 10
9 19 0 18 31 86 43 94 5 3 9 10 8 15 -1 19 12 54 19 54 4 0 11 16 14 35 4 19
11 35 15 35 5 0 12 16 15 35 4 19 11 35 16 35 6 0 10 7 10 16 0 8 9 36 21 62
11 26 27 63 35 82 8 19 19 42 23 50 5 9 12 30 16 48 3 18 10 32 15 32 5 0 11
13 15 30 4 16 11 32 16 35 5 4 9 15 9 26 0 10 4 19 10 19 5 0 12 16 16 35 3
19 10 35 15 35 5 0 9 7 9 15 0 8 -4 15 -9 15 -5 0 -12 34 -16 75 -4 41 -11 75
-15 75 -4 0 -10 19 -13 43 -3 23 -8 49 -10 57 -2 8 -7 33 -12 54 -10 48 -27
69 -176 216 -126 125 -143 140 -158 140 -5 0 -17 8 -27 17 -22 22 -155 26
-161 6 -3 -7 -11 -13 -19 -13 -8 0 -17 -7 -21 -16 -3 -8 -12 -13 -20 -10 -8 3
-11 1 -8 -4 6 -9 0 -18 -32 -54 -7 -8 -15 -25 -19 -40 -9 -36 -22 -42 -30 -11
-3 14 -10 25 -14 25 -7 0 -18 29 -18 47 0 3 -4 9 -9 12 -10 7 -75 132 -71 136
2 1 53 35 113 76 61 41 116 80 123 87 7 6 18 12 23 12 6 0 17 6 24 13 32 28
43 35 63 41 12 4 22 11 22 15 0 3 13 15 30 24 20 12 31 28 36 52 3 19 10 35
14 35 5 0 11 18 15 40 4 22 10 40 15 40 5 0 11 18 15 40 4 22 11 40 16 40 5 0
9 10 9 23 0 12 7 35 15 51 8 15 15 35 15 42 0 8 4 14 9 14 5 0 12 18 16 40 4
22 10 40 15 40 4 0 11 17 15 37 4 21 12 41 18 45 14 9 12 121 -2 126 -20 7
-11 22 12 22 13 0 27 4 33 9 15 15 85 19 287 16 121 -2 193 -7 200 -14z
m-1447 -1140 c-3 -5 2 -8 12 -7 10 0 17 -6 16 -15 -1 -9 6 -16 15 -15 9 0 15
-6 15 -15 -1 -9 6 -16 15 -15 9 0 15 -6 15 -15 -1 -9 6 -16 15 -15 9 0 15 -6
15 -15 -1 -9 6 -16 15 -15 9 0 15 -6 15 -15 -1 -9 6 -16 15 -15 14 1 16 -12
13 -93 -1 -52 -7 -100 -11 -105 -5 -6 -12 -48 -16 -94 -4 -45 -11 -85 -16 -88
-5 -3 -9 -20 -9 -38 0 -29 17 -49 140 -171 l140 -139 0 -186 c-1 -147 -3 -182
-13 -170 -7 8 -34 33 -62 55 -53 43 -96 86 -160 161 -45 53 -105 141 -105 155
0 5 -4 9 -10 9 -5 0 -12 11 -16 25 -3 14 -10 25 -14 25 -5 0 -11 14 -15 30 -4
17 -11 30 -15 30 -5 0 -12 16 -16 35 -3 19 -10 35 -14 35 -5 0 -11 18 -15 40
-4 22 -11 40 -15 40 -5 0 -12 25 -15 55 -4 30 -11 55 -15 55 -5 0 -11 35 -15
78 -3 42 -10 85 -15 94 -13 24 -13 285 0 293 6 3 10 21 10 38 0 18 3 48 6 68
l6 37 55 -54 c30 -30 52 -58 49 -63z"/>
<path d="M5478 3673 c-43 -2 -78 -8 -78 -12 0 -5 -45 -12 -100 -16 -55 -3
-102 -10 -105 -15 -3 -4 -36 -11 -75 -15 -38 -4 -70 -11 -70 -15 0 -4 -25 -11
-55 -15 -30 -3 -57 -11 -60 -16 -4 -5 -14 -9 -24 -9 -10 0 -32 -7 -47 -15 -16
-8 -39 -15 -51 -15 -13 0 -23 -4 -23 -10 0 -5 -7 -10 -17 -10 -19 0 -161 -69
-181 -87 -7 -7 -17 -13 -22 -13 -4 0 -26 -18 -48 -41 -23 -22 -46 -38 -52 -34
-6 3 -7 0 -4 -9 3 -9 2 -16 -3 -16 -26 0 -33 -75 -33 -369 0 -321 3 -345 50
-389 12 -11 19 -25 16 -31 -4 -7 -1 -8 8 -5 9 4 18 -1 22 -10 3 -9 10 -16 16
-16 5 0 16 -6 23 -12 8 -7 20 -17 27 -23 20 -15 104 -55 117 -55 6 0 11 -4 11
-10 0 -5 7 -10 16 -10 9 0 30 -6 47 -14 18 -8 57 -22 87 -32 30 -10 60 -21 65
-25 6 -4 34 -11 63 -15 28 -3 52 -10 52 -14 0 -5 34 -11 75 -15 41 -4 75 -11
75 -15 0 -5 44 -11 98 -15 53 -4 103 -12 111 -19 20 -16 979 -16 989 0 4 6 51
15 105 19 53 4 97 10 97 15 0 4 34 11 75 15 41 4 75 10 75 15 0 4 25 11 55 15
30 3 57 11 60 16 4 5 17 9 30 9 13 0 26 4 30 9 3 5 19 12 36 16 17 4 42 13 57
21 15 8 35 14 45 14 9 0 17 5 17 10 0 6 5 10 11 10 16 0 101 42 117 58 7 6 17
12 22 12 4 0 26 18 48 41 23 22 46 38 52 34 6 -3 7 0 4 9 -3 9 -2 16 3 16 25
0 33 87 33 374 0 316 -3 340 -50 384 -13 12 -19 25 -15 33 5 8 4 10 -4 5 -7
-5 -23 3 -38 18 -14 14 -29 26 -34 26 -4 0 -14 6 -21 13 -16 15 -101 57 -117
57 -6 0 -11 4 -11 9 0 5 -15 13 -32 16 -18 4 -37 10 -43 14 -5 4 -37 15 -70
26 -33 10 -65 22 -70 26 -6 4 -34 11 -63 15 -28 3 -52 10 -52 14 0 5 -32 11
-70 15 -39 4 -72 11 -75 15 -3 5 -49 11 -103 15 -53 4 -100 12 -104 18 -7 11
-754 19 -920 10z m777 -273 c6 -4 54 -10 108 -14 54 -4 106 -11 115 -16 9 -5
43 -12 74 -15 32 -4 60 -11 63 -16 4 -5 15 -9 27 -9 19 0 38 -7 135 -52 55
-25 96 -73 87 -102 -10 -32 -43 -64 -88 -85 -97 -44 -115 -51 -134 -51 -12 0
-23 -4 -26 -9 -3 -5 -34 -12 -68 -16 -35 -4 -68 -11 -73 -15 -6 -5 -55 -12
-110 -16 -55 -3 -106 -11 -113 -17 -18 -14 -686 -14 -704 0 -7 6 -57 13 -111
17 -54 4 -106 11 -115 16 -9 5 -43 12 -74 15 -32 4 -60 11 -63 16 -4 5 -15 9
-27 9 -19 0 -38 7 -135 52 -55 25 -96 73 -87 102 10 32 43 64 88 85 97 44 115
51 134 51 12 0 23 4 27 9 3 5 31 12 63 16 31 3 65 10 74 15 9 5 58 12 110 15
51 4 102 11 113 16 11 5 72 10 135 12 164 5 563 -4 575 -13z"/>
<path d="M4468 2326 c-34 -25 -38 -64 -38 -367 0 -319 3 -343 50 -387 12 -11
19 -25 16 -31 -4 -7 -1 -8 8 -5 9 4 18 -1 22 -10 3 -9 10 -16 16 -16 5 0 16
-6 23 -12 8 -7 20 -17 27 -23 20 -15 104 -55 117 -55 6 0 11 -4 11 -10 0 -5 7
-10 16 -10 9 0 30 -6 47 -14 18 -8 57 -22 87 -32 30 -10 60 -21 65 -25 6 -4
34 -11 63 -15 28 -3 52 -10 52 -14 0 -5 34 -11 75 -15 41 -4 75 -11 75 -15 0
-5 44 -11 98 -15 53 -4 103 -12 111 -19 20 -16 979 -16 989 0 4 6 51 15 105
19 53 4 97 10 97 15 0 4 34 11 75 15 41 4 75 10 75 15 0 4 25 11 55 15 30 3
57 11 60 16 4 5 17 9 30 9 13 0 26 4 30 9 3 5 19 12 36 16 17 4 42 13 57 21
15 8 35 14 45 14 9 0 17 5 17 10 0 6 5 10 11 10 16 0 101 42 117 58 7 6 17 12
22 12 4 0 26 18 48 41 23 22 46 38 52 34 6 -3 7 0 4 9 -3 9 -2 16 3 16 25 0
33 87 33 373 0 299 -4 338 -38 363 -14 11 -22 7 -52 -23 -36 -36 -139 -103
-159 -103 -6 0 -11 -4 -11 -10 0 -5 -16 -12 -35 -16 -19 -3 -35 -10 -35 -14 0
-5 -18 -11 -40 -15 -22 -4 -40 -11 -40 -15 0 -5 -20 -12 -45 -16 -25 -3 -45
-10 -45 -15 0 -5 -11 -9 -24 -9 -14 0 -27 -4 -31 -9 -3 -5 -31 -13 -63 -17
-31 -3 -62 -10 -67 -15 -6 -4 -42 -11 -80 -15 -39 -4 -75 -10 -80 -15 -6 -4
-62 -11 -125 -15 -63 -3 -121 -11 -128 -17 -18 -14 -726 -14 -744 0 -7 6 -65
14 -128 17 -63 4 -119 11 -125 15 -5 5 -41 11 -80 15 -38 4 -74 11 -80 15 -5
5 -36 12 -67 15 -32 4 -60 12 -63 17 -4 5 -17 9 -30 9 -13 0 -26 4 -30 9 -3 6
-26 13 -50 17 -25 3 -45 10 -45 14 0 4 -16 11 -35 14 -19 4 -35 11 -35 15 0 5
-16 12 -35 15 -19 4 -35 11 -35 15 0 5 -12 12 -27 16 -15 3 -30 10 -33 13 -3
4 -23 19 -45 33 -22 14 -53 40 -70 57 -26 26 -33 29 -47 18z"/>
<path d="M4468 1346 c-34 -25 -38 -64 -38 -367 0 -319 3 -343 50 -387 12 -11
19 -25 16 -31 -4 -7 -1 -8 8 -5 9 4 18 -1 22 -10 3 -9 10 -16 16 -16 5 0 16
-6 23 -12 8 -7 20 -17 27 -23 20 -15 104 -55 117 -55 6 0 11 -4 11 -10 0 -5 7
-10 16 -10 9 0 30 -6 47 -14 18 -8 57 -22 87 -32 30 -10 60 -21 65 -25 6 -4
34 -11 63 -15 28 -3 52 -10 52 -14 0 -5 34 -11 75 -15 41 -4 75 -11 75 -15 0
-5 44 -11 98 -15 53 -4 103 -12 111 -19 20 -16 979 -16 989 0 4 6 51 15 105
19 53 4 97 10 97 15 0 4 34 11 75 15 41 4 75 10 75 15 0 4 25 11 55 15 30 3
57 11 60 16 4 5 17 9 30 9 13 0 26 4 30 9 3 5 19 12 36 16 17 4 42 13 57 21
15 8 35 14 45 14 9 0 17 5 17 10 0 6 5 10 11 10 16 0 101 42 117 57 7 7 17 13
22 13 4 0 26 18 48 41 23 22 46 38 52 34 6 -3 7 0 4 9 -3 9 -2 16 3 16 25 0
33 87 33 373 0 299 -4 338 -38 363 -14 11 -22 7 -52 -23 -36 -36 -139 -103
-159 -103 -6 0 -11 -4 -11 -10 0 -5 -16 -12 -35 -16 -19 -3 -35 -10 -35 -15 0
-4 -16 -11 -35 -15 -19 -3 -38 -10 -40 -15 -3 -4 -26 -11 -50 -15 -25 -3 -45
-10 -45 -15 0 -5 -11 -9 -24 -9 -14 0 -27 -4 -31 -9 -3 -5 -31 -13 -63 -17
-31 -3 -62 -10 -67 -15 -6 -4 -42 -11 -80 -15 -39 -4 -75 -10 -80 -15 -6 -4
-62 -11 -125 -15 -63 -3 -121 -11 -128 -17 -18 -14 -726 -14 -744 0 -7 6 -65
14 -128 17 -63 4 -119 11 -125 15 -5 5 -41 11 -80 15 -38 4 -74 11 -80 15 -5
5 -36 12 -67 15 -32 4 -60 12 -63 17 -4 5 -17 9 -30 9 -13 0 -26 4 -30 9 -3 6
-26 13 -50 17 -25 3 -45 10 -45 14 0 4 -16 11 -35 14 -19 4 -35 11 -35 15 0 5
-16 12 -35 15 -19 4 -35 11 -35 15 0 5 -12 12 -27 16 -15 3 -30 10 -33 13 -3
4 -23 19 -45 33 -22 14 -53 40 -70 57 -26 26 -33 29 -47 18z"/>
</g>
</svg>
