<?xml version="1.0" standalone="no"?>
<!DOCTYPE svg PUBLIC "-//W3C//DTD SVG 20010904//EN"
 "http://www.w3.org/TR/2001/REC-SVG-20010904/DTD/svg10.dtd">
<svg version="1.0" xmlns="http://www.w3.org/2000/svg"
 width="1747.000000pt" height="326.000000pt" viewBox="0 0 1747.000000 326.000000"
 preserveAspectRatio="xMidYMid meet">
<metadata>
Created by potrace 1.15, written by Peter Selinger 2001-2017
</metadata>
<g transform="translate(0.000000,326.000000) scale(0.100000,-0.100000)"
fill="#000000" stroke="none">
<path d="M708 2290 c-137 -25 -262 -88 -364 -183 -166 -154 -244 -335 -244
-562 0 -227 78 -408 244 -562 83 -78 173 -129 286 -164 109 -34 283 -33 392 3
108 36 198 89 280 166 160 151 238 333 238 557 0 227 -78 408 -244 562 -126
118 -275 181 -446 188 -52 2 -116 0 -142 -5z m225 -175 c14 -6 15 -10 6 -21
-9 -12 -7 -20 11 -39 27 -29 93 -35 119 -11 13 12 20 12 40 1 l24 -13 -24 -7
c-24 -7 -89 -63 -89 -76 0 -4 14 -12 30 -19 17 -7 30 -19 30 -26 0 -9 -11 -14
-30 -14 -28 0 -30 -3 -30 -35 0 -28 5 -37 31 -50 36 -19 89 -16 99 5 28 62 39
76 63 84 19 7 34 7 45 0 15 -9 81 -119 82 -135 0 -4 -19 -2 -42 3 -92 21 -241
-19 -286 -77 -16 -21 -22 -41 -22 -82 0 -86 18 -115 104 -170 l76 -48 0 -147
0 -147 -33 -25 c-54 -42 -157 -83 -239 -97 -64 -11 -92 -11 -155 0 -43 7 -82
16 -86 21 -5 4 21 78 57 164 37 86 70 166 75 179 6 15 4 52 -7 106 -15 77 -19
86 -73 144 -31 35 -73 71 -92 82 -32 17 -39 18 -63 4 -15 -7 -35 -27 -45 -43
l-17 -29 -26 50 -25 50 90 62 c49 34 89 63 89 65 0 1 20 58 45 125 24 68 43
133 42 144 -1 16 5 23 28 29 34 8 171 3 198 -7z m-548 -617 c-3 -27 -8 -70
-11 -96 -6 -48 -6 -49 47 -106 54 -59 54 -59 59 -136 5 -71 4 -77 -12 -69 -28
15 -108 119 -140 183 -55 109 -76 217 -63 333 l7 67 59 -64 c59 -64 60 -66 54
-112z"/>
<path d="M2261 1984 c-77 -16 -147 -57 -178 -103 -43 -64 -48 -101 -48 -381 0
-258 1 -266 24 -318 29 -65 88 -117 156 -138 84 -26 358 -39 551 -27 209 14
260 28 323 91 51 51 67 92 77 191 l7 61 -65 0 -65 0 -5 -63 c-6 -76 -28 -121
-68 -142 -52 -27 -193 -38 -440 -33 -260 5 -301 14 -341 69 -29 42 -42 181
-36 391 5 147 9 185 25 222 36 81 38 81 417 81 312 0 332 -1 364 -20 50 -30
71 -64 78 -128 l6 -57 65 0 65 0 -7 62 c-17 149 -91 221 -257 247 -97 16 -569
13 -648 -5z"/>
<path d="M10760 1994 c-14 -2 -68 -12 -120 -20 -113 -20 -165 -38 -202 -72
-27 -25 -28 -29 -28 -127 0 -98 1 -102 28 -127 70 -66 229 -93 537 -93 308 0
467 27 538 93 26 25 27 29 27 127 0 98 -1 102 -27 126 -70 64 -209 90 -503 94
-124 2 -236 1 -250 -1z m439 -95 c78 -12 131 -33 131 -52 0 -35 -267 -73 -430
-62 -115 8 -216 24 -257 42 -29 12 -33 16 -23 29 44 52 361 76 579 43z"/>
<path d="M9100 1510 l0 -470 426 0 c352 0 437 3 495 16 92 21 145 61 184 139
l30 60 0 255 c0 245 -1 257 -23 305 -28 61 -55 91 -106 117 -83 42 -148 48
-588 48 l-418 0 0 -470z m937 337 c64 -35 68 -53 68 -337 0 -225 -2 -259 -18
-287 -40 -74 -95 -82 -534 -83 l-323 0 0 365 0 366 388 -3 c348 -3 390 -5 419
-21z"/>
<path d="M13530 1510 l0 -470 65 0 65 0 0 42 0 42 30 -31 c48 -49 130 -68 290
-67 305 1 403 77 417 326 12 209 -42 325 -178 382 -127 53 -442 40 -536 -21
l-23 -15 0 141 0 141 -65 0 -65 0 0 -470z m652 123 c71 -32 82 -60 86 -224 7
-237 -24 -269 -268 -277 -290 -10 -348 39 -338 287 6 156 40 209 148 232 19 4
100 7 180 5 122 -2 152 -6 192 -23z"/>
<path d="M6310 1845 l0 -95 -70 0 -70 0 0 -55 0 -55 70 0 70 0 0 -203 c0 -234
10 -286 64 -341 43 -43 97 -56 229 -56 205 0 276 59 293 243 l7 77 -57 0 -56
0 -1 -52 c0 -69 -18 -116 -50 -140 -33 -25 -165 -36 -226 -19 -69 19 -73 35
-73 281 l0 210 220 0 220 0 0 55 0 55 -220 0 -220 0 0 95 0 95 -65 0 -65 0 0
-95z"/>
<path d="M11860 1845 l0 -95 -70 0 -70 0 0 -55 0 -55 69 0 69 0 4 -227 c3
-213 5 -231 25 -270 43 -79 103 -103 264 -103 207 0 278 59 295 245 l7 75 -57
0 -56 0 -1 -52 c0 -69 -18 -116 -50 -140 -33 -25 -165 -36 -226 -19 -69 19
-73 35 -73 281 l0 210 220 0 220 0 0 55 0 55 -220 0 -220 0 0 95 0 95 -65 0
-65 0 0 -95z"/>
<path d="M3548 1759 c-102 -13 -171 -43 -216 -94 -50 -57 -62 -98 -69 -224
-13 -239 45 -348 212 -397 94 -28 346 -26 440 3 128 40 184 113 206 269 12 86
-1 221 -27 283 -21 50 -79 106 -134 130 -83 36 -265 49 -412 30z m357 -124
c27 -14 48 -35 65 -65 23 -41 25 -55 25 -170 0 -156 -18 -205 -87 -242 -40
-21 -55 -23 -208 -23 -254 0 -293 22 -311 181 -6 59 -6 112 1 161 22 162 62
184 325 180 125 -2 157 -6 190 -22z"/>
<path d="M5591 1760 c-92 -14 -142 -32 -187 -66 l-43 -33 -3 42 -3 42 -62 3
-63 3 0 -361 0 -361 63 3 62 3 5 255 c6 296 5 295 98 338 53 25 66 27 197 27
122 0 146 -3 187 -22 79 -36 82 -48 88 -343 l5 -255 63 -3 63 -3 -3 273 -3
273 -27 55 c-31 61 -71 94 -145 116 -59 18 -219 26 -292 14z"/>
<path d="M7360 1760 c-65 -11 -120 -36 -157 -72 l-33 -32 0 47 0 47 -60 0 -60
0 0 -360 0 -360 60 0 60 0 0 213 c0 230 10 319 37 349 38 42 94 61 193 66 177
8 250 -23 250 -109 l0 -39 56 0 57 0 -7 57 c-13 114 -59 164 -172 188 -74 16
-151 17 -224 5z"/>
<path d="M12870 1763 c-186 -18 -261 -66 -272 -173 l-3 -35 63 -3 c56 -3 62
-1 62 17 0 11 10 31 23 46 30 35 111 48 267 43 141 -4 179 -18 213 -76 19 -32
44 -178 33 -189 -3 -3 -11 -1 -18 5 -7 5 -40 18 -73 28 -85 26 -374 26 -457 1
-105 -32 -149 -91 -150 -201 -1 -88 49 -150 141 -176 115 -33 366 -38 455 -9
22 8 54 28 73 45 l33 31 0 -44 0 -44 63 3 62 3 -1 226 c-2 251 -14 324 -62
394 -62 89 -231 130 -452 108z m311 -442 c49 -15 73 -44 73 -88 0 -77 -75
-103 -294 -103 -217 0 -280 23 -280 104 0 52 21 80 70 93 55 15 377 11 431 -6z"/>
<path d="M14808 1760 c-155 -19 -227 -68 -236 -159 l-5 -51 62 0 c54 0 61 2
61 19 0 11 10 31 23 45 28 33 95 46 233 46 218 0 261 -32 280 -208 l7 -64 -29
15 c-63 31 -138 42 -304 42 -127 -1 -178 -5 -222 -18 -105 -32 -148 -90 -148
-202 0 -147 105 -200 395 -200 165 0 206 9 268 57 l37 29 0 -41 0 -41 63 3 62
3 3 160 c7 384 -36 500 -202 551 -61 18 -255 26 -348 14z m344 -439 c43 -13
78 -53 78 -88 0 -38 -48 -79 -108 -92 -67 -14 -315 -14 -381 0 -65 14 -86 38
-85 99 1 59 13 76 67 89 54 13 381 6 429 -8z"/>
<path d="M15790 1764 c-188 -22 -258 -62 -280 -158 -23 -102 10 -184 87 -218
41 -18 79 -22 278 -30 126 -5 247 -14 267 -19 43 -11 61 -37 61 -89 0 -85 -25
-104 -164 -121 -100 -12 -278 -6 -341 12 -38 10 -68 48 -68 84 0 12 -13 15
-65 15 l-66 0 7 -37 c15 -83 53 -123 143 -151 82 -25 450 -25 533 1 106 33
148 89 148 199 0 78 -21 123 -75 160 -53 36 -132 48 -325 48 -178 0 -269 12
-287 37 -7 9 -13 34 -13 56 0 92 28 102 285 102 180 0 204 -2 240 -20 29 -15
41 -29 47 -52 8 -33 9 -33 68 -33 l60 0 0 30 c0 80 -56 139 -155 165 -59 15
-311 28 -385 19z"/>
<path d="M16785 1764 c-128 -15 -196 -44 -249 -106 -53 -62 -71 -129 -71 -273
0 -142 14 -198 62 -255 61 -71 137 -97 313 -107 149 -7 277 9 350 45 44 21 60
36 78 72 12 24 22 57 22 72 0 28 -1 28 -65 28 -63 0 -65 -1 -65 -25 0 -65 -84
-89 -299 -83 -120 3 -153 7 -186 23 -50 25 -75 69 -82 145 l-6 60 346 0 347 0
6 26 c9 34 -3 143 -21 193 -23 66 -62 108 -129 141 -84 41 -223 58 -351 44z
m278 -129 c54 -25 89 -75 95 -135 l5 -50 -287 0 -286 0 0 43 c0 50 25 103 60
129 39 28 103 37 245 34 101 -2 139 -7 168 -21z"/>
<path d="M4254 1735 c-4 -8 -5 -129 -3 -268 l4 -254 30 -58 c24 -46 40 -64 80
-86 87 -49 250 -63 392 -33 88 18 136 40 176 79 l27 28 0 -52 0 -51 60 0 60 0
0 355 0 355 -59 0 -59 0 -4 -242 c-3 -222 -5 -246 -23 -277 -28 -47 -60 -68
-134 -87 -92 -23 -268 -16 -333 13 -80 36 -82 48 -86 341 l-4 252 -59 0 c-44
0 -61 -4 -65 -15z"/>
<path d="M7790 1743 c1 -5 83 -163 184 -353 137 -259 188 -346 204 -350 l21
-5 -22 -40 c-29 -52 -77 -75 -172 -82 l-75 -6 0 -53 0 -54 33 0 c125 1 246 43
290 102 22 29 427 829 427 843 0 3 -32 5 -72 3 l-72 -3 -146 -307 -145 -306
-155 309 -155 309 -72 0 c-40 0 -73 -3 -73 -7z"/>
<path d="M10416 1585 c-3 -9 -6 -61 -6 -115 0 -96 1 -99 28 -117 98 -68 283
-103 537 -103 254 0 439 35 538 103 26 18 27 20 27 120 0 56 -4 108 -8 115 -6
9 -21 5 -63 -17 -106 -56 -254 -81 -494 -81 -236 0 -386 24 -490 79 -27 14
-53 27 -56 29 -4 2 -9 -4 -13 -13z"/>
<path d="M10417 1293 c-4 -3 -7 -52 -7 -108 0 -98 1 -102 28 -127 70 -66 229
-93 537 -93 308 0 467 27 538 93 26 25 27 29 27 129 0 84 -3 105 -15 110 -9 3
-23 -1 -33 -10 -60 -53 -395 -105 -597 -92 -192 13 -380 50 -427 85 -29 21
-40 24 -51 13z"/>
</g>
</svg>
