<?xml version="1.0" standalone="no"?>
<!DOCTYPE svg PUBLIC "-//W3C//DTD SVG 20010904//EN"
 "http://www.w3.org/TR/2001/REC-SVG-20010904/DTD/svg10.dtd">
<svg version="1.0" xmlns="http://www.w3.org/2000/svg"
 width="1728.000000pt" height="636.000000pt" viewBox="0 0 1728.000000 636.000000"
 preserveAspectRatio="xMidYMid meet">
<metadata>
Created by potrace 1.15, written by Peter Selinger 2001-2017
</metadata>
<g transform="translate(0.000000,636.000000) scale(0.100000,-0.100000)"
fill="#000000" stroke="none">
<path d="M2990 6070 c-409 -39 -821 -167 -1163 -362 -234 -132 -438 -288 -627
-478 -449 -450 -723 -996 -821 -1640 -33 -209 -33 -609 -1 -820 97 -639 378
-1197 827 -1645 444 -443 992 -716 1645 -818 183 -28 603 -30 785 -3 459 67
862 219 1227 462 701 466 1159 1197 1275 2034 21 156 24 556 5 710 -31 247
-100 523 -184 734 -95 240 -280 557 -438 751 -478 588 -1134 955 -1891 1060
-136 19 -505 27 -639 15z m575 -625 c105 -15 246 -43 253 -50 2 -2 -17 -38
-42 -80 -25 -42 -46 -79 -46 -83 0 -3 26 -32 57 -64 l57 -58 190 0 190 0 48
47 48 47 42 -24 c24 -13 75 -43 113 -68 l70 -45 -107 -36 -108 -36 -120 -120
c-66 -66 -120 -122 -120 -125 0 -3 54 -32 120 -65 l120 -59 0 -58 0 -58 -120
0 -120 0 0 -124 0 -125 53 -30 c91 -52 202 -84 294 -85 124 -1 145 21 194 213
18 70 29 91 63 126 71 73 223 112 333 86 46 -11 54 -18 100 -84 63 -90 154
-248 194 -335 38 -84 89 -210 89 -221 0 -5 -35 6 -77 24 -121 52 -223 70 -403
69 -182 0 -313 -22 -510 -86 -163 -53 -269 -108 -340 -178 -75 -74 -100 -129
-111 -254 -17 -176 13 -374 75 -497 l31 -63 308 -184 307 -185 0 -588 0 -587
-87 -64 c-123 -89 -201 -137 -339 -206 -439 -220 -940 -291 -1429 -202 -107
19 -294 67 -307 79 -4 4 132 330 302 726 l310 719 -55 280 c-31 155 -60 294
-65 310 -13 39 -155 199 -309 348 -201 195 -362 291 -459 273 -113 -20 -212
-109 -287 -258 l-44 -88 -116 230 -115 231 362 242 362 243 182 484 181 483
-22 88 -22 87 51 11 c241 52 537 62 781 27z m-2069 -2631 l-61 -364 243 -243
242 -242 -2 -323 -3 -322 -84 66 c-392 310 -674 746 -797 1230 -51 204 -68
340 -68 564 0 191 9 281 41 448 l16 84 267 -267 266 -266 -60 -365z"/>
<path d="M8555 5154 c-311 -28 -471 -56 -635 -111 -463 -154 -649 -451 -691
-1104 -14 -214 -6 -1407 10 -1529 28 -217 75 -389 139 -515 136 -271 402 -431
832 -504 249 -42 356 -46 1240 -46 727 0 868 3 1006 18 522 55 818 181 989
422 130 183 184 388 199 758 l4 107 -234 0 -234 0 0 -67 c0 -90 -17 -284 -31
-353 -52 -257 -202 -396 -494 -454 -175 -34 -279 -39 -1080 -43 -815 -5 -1112
2 -1305 32 -359 54 -499 198 -555 570 -35 227 -45 1413 -14 1732 35 372 133
537 368 623 206 75 338 82 1461 77 796 -3 941 -6 1036 -20 240 -36 383 -104
475 -225 79 -105 122 -254 135 -469 l7 -113 232 0 232 0 -4 93 c-11 258 -46
429 -117 572 -128 259 -356 408 -748 490 -275 57 -297 58 -1278 60 -498 1
-923 1 -945 -1z"/>
<path d="M12400 3256 l0 -1836 1488 0 c1647 0 1734 3 2032 61 263 52 456 139
592 268 197 185 285 447 308 916 12 252 12 931 0 1175 -42 859 -317 1135
-1225 1231 -77 9 -569 13 -1652 16 l-1543 4 0 -1835z m3070 1434 c399 -18 570
-63 695 -181 109 -103 161 -257 185 -544 13 -159 13 -1277 -1 -1430 -35 -414
-147 -590 -421 -665 -197 -54 -184 -53 -1675 -57 l-1383 -4 0 1446 0 1445
1193 0 c655 0 1289 -5 1407 -10z"/>
</g>
</svg>
